
        <svg xmlns="http://www.w3.org/2000/svg" xmlns:xlink="http://www.w3.org/1999/xlink" version="1.1" width="3408.5106382978724" height="3408.5106382978724" viewBox="0 0 3408.5106382978724 3408.5106382978724">
			
			<g transform="scale(20.425531914893618) translate(10, 10)">
				<defs id="SvgjsDefs3776"/><g id="SvgjsG3777" featureKey="rootContainer" transform="matrix(2.9375,0,0,2.9375,0,0)" fill="#000"><circle cx="25" cy="25" r="25"/></g><g id="SvgjsG3778" featureKey="symbolFeature-0" transform="matrix(-0.59553352882422,0,0,0.59553352882422,149.0060240036288,-2.9131516127998083)" fill="#ffffff"><g xmlns="http://www.w3.org/2000/svg"><path d="M195.7,68.7H156c-2.8,0-6.3,1.5-8.3,3.5l-5.3,5.3c-0.8,0.8-0.8,2,0,2.8c0.8,0.8,2,0.8,2.8,0l5.3-5.3   c1.3-1.3,3.8-2.3,5.3-2.3h39.7c1,0,2,1,2,2v39.9c0,1.8-1,4.3-2.3,5.3l-55.9,55.4c-0.8,0.8-2.3,0.8-3,0l-10.5-10.5   c-0.8-0.8-2-0.8-2.8,0s-0.8,2,0,2.8l10.5,10.5c1.3,1.3,2.8,1.8,4.3,1.8s3-0.5,4.3-1.8l55.9-55.4c2-2,3.5-5.5,3.5-8.3V74.5   C201.7,71.5,198.9,68.7,195.7,68.7z"/><path d="M189.9,88.8c0-4.5-3.5-8-8-8c-4.5,0-8,3.5-8,8s3.5,8,8,8C186.4,96.5,189.9,93,189.9,88.8z M177.9,88.8   c0-2.3,1.8-4,4-4c2.3,0,4,1.8,4,4s-1.8,4-4,4C179.7,92.8,177.9,90.8,177.9,88.8z"/><path d="M143.2,90.3c-4.5,0-8,3.5-8,8s3.5,8,8,8c4.5,0,8-3.5,8-8S147.5,90.3,143.2,90.3z M143.2,102.3   c-2.3,0-4-1.8-4-4c0-2.2,1.8-4,4-4c2.3,0,4,1.8,4,4C147.2,100.5,145.5,102.3,143.2,102.3z"/><path d="M122.1,107.1c0.9,0.9,0.9,2.2,0.2,3l-43.1,43.1c-0.8,0.8-2.1,0.7-3-0.2s-0.9-2.2-0.2-3l43.1-43.1   C119.9,106.2,121.2,106.2,122.1,107.1z"/><path d="M127.1,127.8c0.9,0.9,0.9,2.2,0.2,3l-43.1,43.1c-0.8,0.8-2.1,0.7-3-0.2s-0.9-2.2-0.2-3l43.1-43.1   C124.9,126.8,126.2,126.9,127.1,127.8z"/><path d="M117.2,78.2c-2.8,0-6.3,1.5-8.3,3.5l-55.7,56.2c-2.3,2.3-2.3,6.3,0,8.5l41.4,41.4c1.3,1.3,2.8,1.8,4.3,1.8   c1.5,0,3-0.5,4.3-1.8l55.9-55.4c2-2,3.5-5.5,3.5-8.3V84.2c0-3.3-2.8-6-6-6H117.2z M158.9,84.2v39.9c0,1.8-1,4.3-2.3,5.3l-55.9,55.4   c-0.8,0.8-2.3,0.8-3,0l-41.4-41.4c-0.8-0.8-0.8-2,0-2.8L112,84.4c1.3-1.3,3.8-2.3,5.3-2.3H157C158,82.2,158.9,83.2,158.9,84.2z"/></g></g><g id="SvgjsG3779" featureKey="nameFeature-0" transform="matrix(0.05104212034151864,0,0,0.05104212034151864,69.00500052396525,117.61207991461099)" fill="#ffffff"><path d="M1.6 23.16 c1.96 -11.16 2.76 -15.56 8.36 -15.56 c4.12 0 4.8 2.52 4 8.56 l-3.72 0 c0.6 -4.36 0.36 -5.36 -0.84 -5.36 c-1.84 0 -2.2 1.96 -4.04 12.36 c-2.04 11.56 -2.32 13.24 -0.48 13.24 c1.32 0 1.88 -1 2.88 -6.16 l3.76 0 c-1.56 7.4 -3.04 10.16 -7.36 10.16 c-5.6 0 -4.8 -4.44 -2.56 -17.24 z M13.100000000000001 40 l5.64 -32 l4 0 l-2.4 13.6 l4 0 l2.4 -13.6 l4 0 l-5.64 32 l-4 0 l2.68 -15.2 l-4 0 l-2.68 15.2 l-4 0 z M29.6 40 l2.96 -16.8 c1.96 -11.16 2.76 -15.56 8.76 -15.56 s5.2 4.4 3.24 15.56 l-2.96 16.8 l-4 0 l1.64 -9.2 l-4 0 l-1.64 9.2 l-4 0 z M35.800000000000004 27.6 l4 0 l0.76 -4.4 c1.84 -10.4 2.16 -12.36 0.16 -12.36 s-2.32 1.96 -4.16 12.36 z M46.1 40 l5.64 -32 l6.48 0 c4.12 0 5.08 2.52 4.24 7.36 c-0.8 4.36 -1.76 6.84 -3.2 8.04 l-0.04 0.24 c0.96 0.36 0.96 2.24 0.56 6.92 l-0.88 9.44 l-4 0 l1.16 -9.44 c0.56 -4.76 0 -5.76 -1.2 -5.76 l-2.08 0 l-2.68 15.2 l-4 0 z M53.34 21.6 l2.48 0 c1.4 0 2.04 -1.4 2.92 -6.24 c0.52 -3.16 0.12 -4.16 -1.08 -4.16 l-2.48 0 z M62.6 40 l5.64 -32 l4 0 l-4.92 28 l5.2 0 l-0.72 4 l-9.2 0 z M74.7 40 l5.64 -32 l4 0 l-5.64 32 l-4 0 z M83.2 40 l5.64 -32 l9.2 0 l-0.56 3.2 l-5.2 0 l-1.84 10.4 l4.4 0 l-0.56 3.2 l-4.4 0 l-1.96 11.2 l5.2 0 l-0.72 4 l-9.2 0 z M105 40 l5.64 -32 l4 0 l-2.24 12.68 l6.24 -12.68 l4 0 l-7.48 15.2 l1.84 16.8 l-4 0 l-1.52 -14 l-2.48 14 l-4 0 z M119.9 40 l2.96 -16.8 c1.96 -11.16 2.76 -15.56 8.76 -15.56 s5.2 4.4 3.24 15.56 l-2.96 16.8 l-4 0 l1.64 -9.2 l-4 0 l-1.64 9.2 l-4 0 z M126.1 27.6 l4 0 l0.76 -4.4 c1.84 -10.4 2.16 -12.36 0.16 -12.36 s-2.32 1.96 -4.16 12.36 z M139.4 40 l2.44 -13.92 l-1.4 -18.08 l4 0 l0.24 12.32 l0.4 0 l4.56 -12.32 l4 0 l-7.8 18.08 l-2.44 13.92 l-4 0 z M150.9 40 l5.64 -32 l4 0 l-4.92 28 l5.2 0 l-0.72 4 l-9.2 0 z M165.56 23.16 c1.96 -11.16 3 -15.56 9 -15.56 s5.44 4.4 3.48 15.56 c-2.24 12.8 -3.28 17.24 -9.28 17.24 s-5.44 -4.44 -3.2 -17.24 z M169.48000000000002 36.4 c2.24 0 2.52 -1.68 4.56 -13.24 c1.84 -10.4 2.2 -12.36 -0.04 -12.36 s-2.6 1.96 -4.44 12.36 c-2.04 11.56 -2.32 13.24 -0.08 13.24 z M179.18 40 l5.64 -32 l6.48 0 c4.12 0 5.08 2.52 4.24 7.36 c-0.8 4.36 -1.76 6.84 -3.2 8.04 l-0.04 0.24 c0.96 0.36 0.96 2.24 0.56 6.92 l-0.88 9.44 l-4 0 l1.16 -9.44 c0.56 -4.76 0 -5.76 -1.2 -5.76 l-2.08 0 l-2.68 15.2 l-4 0 z M186.42000000000002 21.6 l2.48 0 c1.4 0 2.04 -1.4 2.92 -6.24 c0.52 -3.16 0.12 -4.16 -1.08 -4.16 l-2.48 0 z"/></g>
			</g>
		</svg>
	