
        <svg xmlns="http://www.w3.org/2000/svg" xmlns:xlink="http://www.w3.org/1999/xlink" version="1.1" width="3240" 
        height="3215.787302147456" viewBox="0 0 3240 3215.787302147456">
			
			<g transform="scale(11.999999999999998) translate(10, 10)">
				<defs id="SvgjsDefs10054"></defs><g id="SvgjsG10055" featureKey="rootContainer" transform="matrix(2.4530634883643807,0,0,2.4530634883643807,0.10902506484402764,-0.02247682827270887)" fill="#ff993b"><path xmlns="http://www.w3.org/2000/svg" d="M101.8 83.6l-.2-29.5c0-6 .1-12.2-.2-18-.1-2.5-.1-5.1-.1-7.8 0-4.7-.1-9-.4-13.2l-.2-4.2c-.1-2.7-.2-5.3-.3-8V1h-7.3L77.2.7H66.6a25.7 25.7 0 0 0-5.5.6l-.6.3H49.8c-.1-.2-.8-.3-2.2-.4L34.3.3a130.5 130.5 0 0 0-18.8.1C12.3.6 9 .8 4.6.9L1.5.5H.4v1.2c-.2 2-.3 4.3-.3 7s0 6.8-.1 10.2 0 5.3 0 8a42.2 42.2 0 0 0 .4 6.9 20.3 20.3 0 0 1 .3 2.9c.1 3.8.4 4.8.8 5.5v17.6l-.2.5c.1 4-.1 7.6-.2 11.3-.3 7.4-.4 15-.1 22.5a25.5 25.5 0 0 0 .5 4.9v.8H6l-.2.2h5.4a51 51 0 0 1 8.6.4 21.1 21.1 0 0 0 3.8.3c6.6-.1 12.7.1 18.9.4h6.7l13.9-.3c6.1-.1 11.9-.5 18.3-.5h9.7l3.5-.2 2.8-.5h2.3v-1c.3 1.6.6 1.4 1-.8.1-.6.2-1.3.3-2s.3-2.6.5-3.4a51.3 51.3 0 0 0 .3-8.8z"></path></g><g id="SvgjsG10056" featureKey="symbolFeature-0" transform="matrix(1.565217391304348,0,0,1.565217391304348,87.86956521739131,55.43478260869565)" fill="#ffffff"><path xmlns="http://www.w3.org/2000/svg" fill-rule="evenodd" clip-rule="evenodd" d="M41,47L41,47H7l0,0c-2.762,0-5-2.238-5-5V2c0-0.552,0.447-1,1-1l0,0h34l0,0  c0.414,0,0.77,0.252,0.922,0.611C37.972,1.73,38,1.862,38,2v0v14h7c0.553,0,1,0.448,1,1v25C46,44.762,43.762,47,41,47z M36,42V3H4  v39l0,0l0,0c0,1.657,1.344,3,3,3h30.022C36.39,44.162,36,43.131,36,42z M44,18h-6v24c0,1.657,1.343,3,3,3s3-1.343,3-3V18z M7,40  c0-0.552,0.447-1,1-1h9c0.553,0,1,0.448,1,1c0,0.553-0.447,1-1,1H8C7.447,41,7,40.553,7,40z M11.666,23.715  c-0.381,0.381-0.999,0.381-1.381,0c-0.381-0.381-0.381-1,0-1.381l5.905-5.905c0.032-0.047,0.053-0.101,0.095-0.143  c0.197-0.197,0.457-0.288,0.715-0.282c0.258-0.006,0.518,0.084,0.715,0.282c0.042,0.042,0.062,0.096,0.095,0.143l4.19,4.19  l2.19-2.19c0.032-0.047,0.053-0.101,0.095-0.143c0.197-0.197,0.457-0.288,0.715-0.281c0.258-0.007,0.518,0.084,0.715,0.281  c0.042,0.042,0.062,0.096,0.095,0.143l3.905,3.905c0.381,0.381,0.381,1,0,1.381c-0.382,0.381-1,0.381-1.381,0L25,20.381L23.381,22  l0.334,0.334c0.381,0.381,0.381,1,0,1.381s-1,0.381-1.381,0L17,18.381L11.666,23.715z M23,29h9c0.553,0,1,0.448,1,1  c0,0.553-0.447,1-1,1h-9c-0.553,0-1-0.447-1-1C22,29.448,22.447,29,23,29z M23,34h9c0.553,0,1,0.448,1,1c0,0.553-0.447,1-1,1h-9  c-0.553,0-1-0.447-1-1C22,34.448,22.447,34,23,34z M23,39h9c0.553,0,1,0.448,1,1c0,0.553-0.447,1-1,1h-9c-0.553,0-1-0.447-1-1  C22,39.448,22.447,39,23,39z M24,15.5c0,0.829-0.672,1.5-1.5,1.5S21,16.329,21,15.5s0.672-1.5,1.5-1.5S24,14.671,24,15.5z M27,10H13  c-0.553,0-1-0.448-1-1s0.447-1,1-1h14c0.553,0,1,0.448,1,1S27.553,10,27,10z M8,34h9c0.553,0,1,0.448,1,1c0,0.553-0.447,1-1,1H8  c-0.553,0-1-0.447-1-1C7,34.448,7.447,34,8,34z M18,30c0,0.553-0.447,1-1,1H8c-0.553,0-1-0.447-1-1c0-0.552,0.447-1,1-1h9  C17.553,29,18,29.448,18,30z"></path></g><g id="SvgjsG10057" featureKey="nameFeature-0" transform="matrix(0.05104212034151864,0,0,0.05104212034151864,45.00500052396525,148.612079914611)" fill="#ff993b"><path d="M1.6 23.16 c1.96 -11.16 2.76 -15.56 8.36 -15.56 c4.12 0 4.8 2.52 4 8.56 l-3.72 0 c0.6 -4.36 0.36 -5.36 -0.84 -5.36 c-1.84 0 -2.2 1.96 -4.04 12.36 c-2.04 11.56 -2.32 13.24 -0.48 13.24 c1.32 0 1.88 -1 2.88 -6.16 l3.76 0 c-1.56 7.4 -3.04 10.16 -7.36 10.16 c-5.6 0 -4.8 -4.44 -2.56 -17.24 z M13.100000000000001 40 l5.64 -32 l4 0 l-2.4 13.6 l4 0 l2.4 -13.6 l4 0 l-5.64 32 l-4 0 l2.68 -15.2 l-4 0 l-2.68 15.2 l-4 0 z M29.6 40 l2.96 -16.8 c1.96 -11.16 2.76 -15.56 8.76 -15.56 s5.2 4.4 3.24 15.56 l-2.96 16.8 l-4 0 l1.64 -9.2 l-4 0 l-1.64 9.2 l-4 0 z M35.800000000000004 27.6 l4 0 l0.76 -4.4 c1.84 -10.4 2.16 -12.36 0.16 -12.36 s-2.32 1.96 -4.16 12.36 z M46.1 40 l5.64 -32 l6.48 0 c4.12 0 5.08 2.52 4.24 7.36 c-0.8 4.36 -1.76 6.84 -3.2 8.04 l-0.04 0.24 c0.96 0.36 0.96 2.24 0.56 6.92 l-0.88 9.44 l-4 0 l1.16 -9.44 c0.56 -4.76 0 -5.76 -1.2 -5.76 l-2.08 0 l-2.68 15.2 l-4 0 z M53.34 21.6 l2.48 0 c1.4 0 2.04 -1.4 2.92 -6.24 c0.52 -3.16 0.12 -4.16 -1.08 -4.16 l-2.48 0 z M62.6 40 l5.64 -32 l4 0 l-4.92 28 l5.2 0 l-0.72 4 l-9.2 0 z M74.7 40 l5.64 -32 l4 0 l-5.64 32 l-4 0 z M83.2 40 l5.64 -32 l9.2 0 l-0.56 3.2 l-5.2 0 l-1.84 10.4 l4.4 0 l-0.56 3.2 l-4.4 0 l-1.96 11.2 l5.2 0 l-0.72 4 l-9.2 0 z M105 40 l5.64 -32 l4 0 l-2.24 12.68 l6.24 -12.68 l4 0 l-7.48 15.2 l1.84 16.8 l-4 0 l-1.52 -14 l-2.48 14 l-4 0 z M119.9 40 l2.96 -16.8 c1.96 -11.16 2.76 -15.56 8.76 -15.56 s5.2 4.4 3.24 15.56 l-2.96 16.8 l-4 0 l1.64 -9.2 l-4 0 l-1.64 9.2 l-4 0 z M126.1 27.6 l4 0 l0.76 -4.4 c1.84 -10.4 2.16 -12.36 0.16 -12.36 s-2.32 1.96 -4.16 12.36 z M139.4 40 l2.44 -13.92 l-1.4 -18.08 l4 0 l0.24 12.32 l0.4 0 l4.56 -12.32 l4 0 l-7.8 18.08 l-2.44 13.92 l-4 0 z M150.9 40 l5.64 -32 l4 0 l-4.92 28 l5.2 0 l-0.72 4 l-9.2 0 z M165.56 23.16 c1.96 -11.16 3 -15.56 9 -15.56 s5.44 4.4 3.48 15.56 c-2.24 12.8 -3.28 17.24 -9.28 17.24 s-5.44 -4.44 -3.2 -17.24 z M169.48000000000002 36.4 c2.24 0 2.52 -1.68 4.56 -13.24 c1.84 -10.4 2.2 -12.36 -0.04 -12.36 s-2.6 1.96 -4.44 12.36 c-2.04 11.56 -2.32 13.24 -0.08 13.24 z M179.18 40 l5.64 -32 l6.48 0 c4.12 0 5.08 2.52 4.24 7.36 c-0.8 4.36 -1.76 6.84 -3.2 8.04 l-0.04 0.24 c0.96 0.36 0.96 2.24 0.56 6.92 l-0.88 9.44 l-4 0 l1.16 -9.44 c0.56 -4.76 0 -5.76 -1.2 -5.76 l-2.08 0 l-2.68 15.2 l-4 0 z M186.42000000000002 21.6 l2.48 0 c1.4 0 2.04 -1.4 2.92 -6.24 c0.52 -3.16 0.12 -4.16 -1.08 -4.16 l-2.48 0 z"></path></g><g id="SvgjsG10058" featureKey="sloganFeature-0" transform="matrix(1.9254864140474481,0,0,1.9254864140474481,43.06829522976724,151.7405130071549)" fill="#ffffff"><path d="M8.9 7.359999999999999 c0.02 -0.66 0 -1.2 0 -1.84 c0 -0.74 -1.34 -0.66 -1.82 -0.64 c-2.14 0.14 -4.18 1.5 -5.16 3.36 c-0.28 0.54 -0.48 1.1 -0.62 1.68 c-0.34 1.36 -0.36 2.8 -0.2 4.18 c0.14 1.3 0.48 2.6 1.28 3.64 c1.38 1.82 3.92 2.46 6.1 2.12 c0.1 -0.02 0.2 -0.04 0.28 -0.1 c0.06 -0.04 0.12 -0.12 0.12 -0.2 l0.06 -1.14 c0.02 -0.36 0 -0.34 0 -0.7 c0 -0.48 -1 -0.12 -1.62 -0.12 c-0.6 0 -1.24 -0.02 -1.78 -0.3 c-0.96 -0.54 -1.5 -1.62 -1.8 -2.64 c-0.34 -1.1 -0.42 -2.28 -0.22 -3.4 c0.24 -1.46 0.94 -3.14 2.48 -3.64 c0.88 -0.3 1.82 -0.2 2.7 -0.1 c0.12 0.02 0.2 -0.06 0.2 -0.16 z M14.773 16.38 c0 -0.7 -0.1 -2.6 -0.08 -3 c0 -0.06 0.04 -0.14 0.06 -0.14 c0.04 0 0.12 0.04 0.14 0.06 c0.64 0.84 3.64 6.66 4 6.68 c0.1 0.02 0.2 0.02 0.3 0.02 c0.68 -0.04 1.28 0 1.96 0 c0.7 0 0.24 -0.68 0.12 -0.86 c-0.18 -0.26 -2.56 -4.52 -2.7 -4.78 c-0.4 -0.68 -0.74 -1.42 -1.14 -2.08 c-0.04 -0.08 -0.08 -0.2 -0.06 -0.28 c0.04 -0.24 0.1 -0.46 0.2 -0.68 c0.48 -0.94 0.98 -1.9 1.56 -2.8 c0.64 -1.02 1 -1.66 1.52 -2.58 c0.12 -0.22 0.2 -0.46 0.28 -0.72 c0.02 -0.1 -0.06 -0.2 -0.18 -0.2 c-0.38 -0.02 -1.76 0 -2.2 0 c-0.2 0 -0.4 0.04 -0.5 0.22 c-0.26 0.5 -2.94 5.4 -3.2 5.84 c-0.02 0.04 -0.08 0.06 -0.14 0.06 c0 0 -0.04 -0.06 -0.04 -0.1 c-0.02 -1.12 0.18 -4.78 0.14 -5.52 c-0.02 -0.44 -0.1 -0.48 -0.54 -0.5 c-0.48 -0.02 -1.14 -0.02 -1.62 -0.02 c-0.44 0 -0.48 0.24 -0.54 0.56 c-0.02 0.06 -0.02 1.94 -0.02 2.78 c0 1.22 -0.1 8.86 0.04 11.28 c0 0.24 0.06 0.38 0.26 0.38 c0.54 -0.04 1.34 0 1.88 0 c0.38 0 0.44 -0.04 0.44 -0.68 c0 -0.86 0.08 -1.64 0.08 -2.7 c0 -0.08 -0.02 -0.16 -0.02 -0.24 z M30.779 6.539999999999999 c0 0.96 -0.04 11.28 0 12.2 c0.02 0.22 0.02 0.44 0.02 0.66 c0 0.16 0.1 0.26 0.24 0.32 c0.12 0.04 0.28 0.08 0.4 0.08 c0.58 -0.06 1.2 0 1.8 -0.02 c1.04 0.08 1.98 -0.16 2.88 -0.64 c0.84 -0.48 1.3 -1.34 1.62 -2.24 c0.26 -0.76 0.22 -1.66 0.08 -2.44 c-0.12 -0.7 -0.44 -1.38 -0.86 -1.94 c-0.06 -0.08 -0.92 -0.62 -0.88 -0.66 c0.52 -0.74 1.26 -1.36 1.36 -2.28 c0.08 -0.8 -0.1 -1.62 -0.38 -2.36 c-0.18 -0.48 -0.42 -0.94 -0.8 -1.3 c-0.64 -0.6 -1.6 -0.86 -2.44 -0.94 c-0.86 -0.08 -1.66 -0.02 -2.52 -0.06 c-0.3 0 -0.44 0.12 -0.44 0.44 c0 0.42 -0.08 0.76 -0.08 1.18 z M33.239 10.18 c-0.02 -0.22 0 -1.98 -0.04 -2.64 c-0.02 -0.24 0.12 -0.36 0.38 -0.3 c0.2 0.04 0.36 0.06 0.52 0.18 c0.5 0.38 0.88 0.84 0.9 1.48 c0 0.32 0 0.64 -0.12 0.94 c-0.14 0.36 -0.34 0.64 -0.7 0.82 c-0.24 0.12 -0.46 0.26 -0.7 0.36 c-0.12 0.04 -0.24 -0.02 -0.26 -0.14 c0 -0.24 0.02 -0.7 0.02 -0.7 z M35.239000000000004 15.48 c0 0.1 -0.02 0.28 -0.02 0.46 c-0.02 0.6 -0.8 1.36 -1.7 1.38 c-0.06 0 -0.16 -0.06 -0.18 -0.12 c-0.04 -0.12 -0.08 -0.26 -0.08 -0.4 c-0.02 -0.62 0 -1.22 0 -1.88 c0.06 -0.42 0.02 -0.86 0.02 -1.3 c0.02 -0.34 0.1 -0.4 0.42 -0.46 c0.48 -0.06 0.92 0.14 1.14 0.52 c0.26 0.46 0.36 0.96 0.4 1.48 l0 0.32 z M41.052 6.960000000000001 c-0.02 1.24 0.1 10.3 0.08 10.96 c0 0.62 0 1.24 0.02 1.86 c0 0.1 0.06 0.2 0.16 0.2 c1.4 0.06 2.78 -0.06 4.18 -0.04 c0.46 0.02 0.92 0 1.36 0 c0.44 -0.02 0.48 -0.2 0.46 -0.56 c-0.02 -0.56 -0.02 -1.06 -0.02 -1.6 c-0.02 -0.28 -0.18 -0.38 -0.42 -0.38 c-0.82 0.02 -1.64 -0.02 -2.46 0.02 c-0.14 0.02 -0.28 0.02 -0.42 0.02 c-0.24 -0.02 -0.3 -0.08 -0.32 -0.34 l0 -0.3 c-0.06 -1.66 0.06 -3.38 0.06 -5.04 c-0.02 -1.4 0 -2.66 -0.02 -3.9 c0 -0.54 0 -1.08 -0.02 -1.6 c-0.02 -0.32 0 -0.66 -0.08 -0.98 c-0.04 -0.12 -0.1 -0.28 -0.24 -0.28 l-1.88 0 c-0.32 0 -0.42 0.22 -0.44 0.54 l0 1.42 z M60.964999999999996 8.68 c0.42 1.24 0.52 2.58 0.52 3.9 c0 1.1 -0.2 2.16 -0.48 3.22 c-0.36 1.26 -0.96 2.4 -2.04 3.14 c-0.8 0.58 -1.64 0.96 -2.62 1.06 c-0.14 0 -0.26 0.02 -0.4 0.02 c-0.12 0 -0.24 -0.02 -0.38 -0.02 c-0.98 -0.1 -1.82 -0.48 -2.64 -1.06 c-1.06 -0.74 -1.68 -1.88 -2.02 -3.14 c-0.3 -1.06 -0.48 -2.12 -0.48 -3.22 c0 -1.32 0.1 -2.66 0.52 -3.9 c0.74 -2.14 2.78 -3.66 5 -3.7 c2.22 0.04 4.26 1.56 5.02 3.7 z M59.025 14.04 c0.2 -1.22 0.12 -2.46 -0.12 -3.68 c-0.24 -1.1 -0.72 -2.18 -1.64 -2.84 c-0.16 -0.12 -0.34 -0.22 -0.52 -0.28 c-0.26 -0.12 -0.54 -0.16 -0.8 -0.16 s-0.52 0.04 -0.78 0.16 c-0.2 0.06 -0.36 0.16 -0.52 0.28 c-0.94 0.66 -1.42 1.74 -1.64 2.84 c-0.24 1.22 -0.32 2.46 -0.12 3.68 c0.2 1.1 0.6 2.58 1.64 3.14 c0.44 0.24 0.92 0.4 1.42 0.42 c0.5 -0.02 1 -0.18 1.44 -0.42 c1.04 -0.56 1.44 -2.04 1.64 -3.14 z M73.538 16.64 c0.02 0.96 0 1.94 -0.06 2.9 c0 0.08 -0.06 0.16 -0.12 0.2 c-0.08 0.06 -0.18 0.1 -0.28 0.1 c-1.24 0.2 -2.74 0.3 -3.94 -0.1 c-2.7 -0.92 -4.54 -3.94 -4.54 -7.4 c0 -3.74 2.68 -7.38 6.58 -7.52 c0.52 -0.02 2.3 -0.1 2.24 0.78 c-0.04 0.64 0.02 1.16 0 1.82 c0 0.12 -0.08 0.2 -0.2 0.18 c-1.14 -0.14 -2.44 -0.5 -3.54 0.02 c-0.92 0.44 -1.56 1.38 -1.92 2.3 c-0.64 1.52 -0.5 3.28 -0.06 4.84 c0.34 1.24 1.08 2.7 2.56 2.74 c0.08 0.02 0.84 0.06 0.84 -0.02 l-0.06 -2.56 c-0.02 -0.12 -0.02 -0.24 -0.04 -0.36 s-0.1 -0.16 -0.22 -0.18 c-0.32 0 -0.32 -0.02 -0.64 -0.02 c-0.74 0 -0.58 -0.5 -0.6 -0.66 c-0.02 -0.3 0 -0.58 -0.02 -0.88 c-0.02 -0.28 0.06 -0.5 0.34 -0.54 l0.24 0 c1.04 -0.06 2.1 0.02 3.2 0.02 c0.16 0 0.24 0.2 0.24 0.38 c0.02 0.2 0.02 0.34 0.02 0.54 c0.06 0.98 -0.06 1.98 -0.04 2.96 c0.02 0.16 0.02 0.3 0.02 0.46 z M80.771 4.9 c-0.38 0.02 -0.76 0.08 -1.14 0.2 c-0.82 0.28 -1.56 0.84 -2.06 1.56 c-0.44 0.66 -0.62 1.44 -0.68 2.22 c-0.04 0.6 0.02 1.22 0.3 1.76 c0.3 0.58 0.82 1.08 1.26 1.56 c0.4 0.42 0.8 0.84 1.24 1.22 c0.4 0.38 0.86 0.68 1.26 1.08 c0.58 0.58 0.8 1.9 0.38 2.62 c-0.5 0.8 -1.68 0.92 -2.46 0.66 c-0.4 -0.14 -0.76 -0.44 -1.1 -0.68 c-0.2 -0.14 -0.44 -0.2 -0.58 0.04 c-0.08 0.12 -0.12 0.26 -0.16 0.38 c-0.14 0.5 -0.32 0.96 -0.34 1.5 c-0.02 0.62 1.16 0.8 1.6 0.9 c1.96 0.46 4.32 0.1 5.34 -1.84 c0.2 -0.4 0.34 -0.82 0.42 -1.26 c0.02 -0.16 0.04 -0.3 0.04 -0.46 c0.08 -1.28 -0.44 -2.36 -1.22 -3.32 c-0.84 -1.04 -1.9 -1.76 -2.88 -2.66 c-0.6 -0.56 -0.82 -1.44 -0.64 -2.24 c0.18 -0.86 1.16 -1.08 1.9 -0.86 c0.22 0.06 0.4 0.16 0.6 0.28 c0.12 0.06 0.24 0.14 0.4 0.14 c0.28 0.02 0.32 -0.2 0.38 -0.42 c0.14 -0.5 0.38 -0.9 0.48 -1.38 c0.1 -0.54 -0.34 -0.64 -0.78 -0.78 c-0.52 -0.14 -1.02 -0.24 -1.56 -0.22 z"></path></g>
			</g>
		</svg>
	